<?xml version="1.0" encoding="UTF-8"?>
<!DOCTYPE svg PUBLIC "-//W3C//DTD SVG 1.1//EN" "http://www.w3.org/Graphics/SVG/1.1/DTD/svg11.dtd">
<svg xmlns="http://www.w3.org/2000/svg" xmlns:xlink="http://www.w3.org/1999/xlink">

    <symbol id="phone" viewBox="0 0 22 22">
		<path d="M19.885 15.511c-.825-.852-3.173-2.448-4.71-2.448-.357 0-.668.079-.923.244-.752.483-1.351.858-1.64.858-.158 0-.328-.142-.701-.466l-.062-.057c-1.035-.903-1.256-1.136-1.657-1.557l-.102-.108c-.074-.074-.136-.142-.198-.204-.35-.364-.605-.625-1.504-1.648l-.04-.046c-.43-.488-.713-.806-.73-1.04-.017-.226.181-.596.685-1.283.61-.83.633-1.853.073-3.04C7.93 3.778 7.2 2.88 6.556 2.09l-.057-.068C5.944 1.34 5.299 1 4.58 1c-.797 0-1.459.432-1.81.66-.028.016-.056.039-.084.056-.786.5-1.357 1.187-1.572 1.886C.792 4.653.577 6.017 2.12 8.852c1.335 2.455 2.545 4.102 4.468 6.085C8.4 16.802 9.202 17.404 11 18.71c2.002 1.455 3.925 2.29 5.271 2.29 1.25 0 2.234 0 3.637-1.699 1.47-1.784.86-2.875-.023-3.79zm-.65 3.177c-1.131 1.375-1.782 1.375-2.958 1.375-1.148 0-2.93-.796-4.762-2.12-1.753-1.273-2.534-1.858-4.292-3.67-1.861-1.915-3.032-3.512-4.321-5.881-1.363-2.506-1.21-3.602-.933-4.506.147-.483.588-1 1.187-1.375.029-.017.057-.04.09-.056.3-.194.798-.518 1.341-.518.453 0 .854.228 1.239.7l.056.068c1.442 1.772 2.568 3.34 1.72 4.5-.6.812-.917 1.363-.866 1.931.045.552.413.966.967 1.591l.04.046c.91 1.034 1.17 1.306 1.533 1.676.062.062.124.13.197.204l.102.108c.419.438.65.677 1.714 1.614l.062.057c.452.397.786.687 1.273.687.503 0 1.057-.318 2.11-.994a.845.845 0 01.451-.108c1.228 0 3.343 1.41 4.084 2.176.679.693 1.018 1.216-.034 2.494z" />
	</symbol>

	<symbol id="arrow-small-down" viewBox="0 0 12 8">
		<path stroke-linecap="round" stroke-width="1.5" d="M11 .997L6 5.996 1 .997" />
	</symbol>

	<symbol id="calculator" viewBox="0 0 16 21">
		<rect width="14.5" height="18.494" x=".75" y=".854" stroke-width="1.5" rx="2.25" />
		<rect width="9.7" height="4.098" x="3.15" y="3.253" stroke-width="1.5" rx="2.049" />
		<circle cx="4" cy="10.5" r=".8" />
		<circle cx="4" cy="13.699" r=".8" />
		<circle cx="4" cy="16.898" r=".8" />
		<circle cx="7.999" cy="10.5" r=".8" />
		<circle cx="8" cy="13.699" r=".8" />
		<circle cx="8" cy="16.898" r=".8" />
		<circle cx="12" cy="10.5" r=".8" />
		<circle cx="12" cy="13.699" r=".8" />
		<circle cx="12" cy="16.898" r=".8" />
	</symbol>

	<symbol id="document" viewBox="0 0 18 22">
		<path stroke-linecap="round" stroke-linejoin="round" stroke-width="1.5" d="M4.2 4.286H9M4.2 8.283H9M4.2 12.282h9.6M4.2 16.28h9.6" />
		<path stroke="none" d="M1 1.086v-.75H.25v.75H1zm10.4 7.597h-.75v.75h.75v-.75zM17 21.08v.75h.75v-.75H17zm-16 0H.25v.75H1v-.75zM11.4 1.086l.604-.445-.225-.305H11.4v.75zM17 8.683h.75v-.246l-.146-.199-.604.445zm0 11.646H1v1.5h16v-1.5zm-15.25.75V1.086H.25v19.993h1.5zM1 1.836h10.4v-1.5H1v1.5zm9.65-.75v7.597h1.5V1.086h-1.5zm.75 8.347H17v-1.5h-5.6v1.5zm4.85-.75V21.08h1.5V8.683h-1.5zm-5.454-7.152l5.6 7.597 1.208-.89-5.6-7.597-1.208.89z" />
	</symbol>

	<symbol id="search" viewBox="0 0 21 21">
		<circle cx="7.347" cy="7.347" r="6.597" stroke-width="1.5" />
		<path stroke-width="1.5" d="M20 20l-7.755-7.755" />
	</symbol>

	<symbol id="cross" viewBox="0 0 17 17">
		<path d="M8.5 9.398l6.26 6.257c.335.336.728.48 1.04.168.311-.311.23-.766-.04-1.034L9.435 8.463l6.294-6.292c.336-.335.35-.723.101-.972-.249-.25-.7-.297-1.035.038L8.5 7.53 2.206 1.238C1.87.903 1.42.951 1.17 1.2c-.25.249-.235.637.1.972l6.295 6.292-6.327 6.325c-.268.268-.35.723-.039 1.034.312.311.705.168 1.04-.168L8.5 9.398z" clip-rule="evenodd" />
		<path d="M14.76 15.655l.106-.106-.106.106zM8.5 9.398l.106-.106-.106-.106-.106.106.106.106zm7.26 5.39l-.105.107.106-.106zM9.435 8.465l-.106-.106-.106.106.106.106.106-.106zm6.294-6.292l-.106-.106.106.106zm.101-.972l-.106.106.106-.106zm-1.035.038l-.106-.106.106.106zM8.5 7.53l-.106.106.106.106.106-.106L8.5 7.53zM2.206 1.238l.106-.106-.106.106zM1.17 1.2l-.106-.106.106.106zm.1.972l.107-.106-.106.106zm6.295 6.292l.106.106.106-.106-.106-.106-.106.106zm-6.327 6.325l.106.106-.106-.106zm1.001.866l-.106-.106.106.106zm12.626-.106l-6.26-6.257-.212.212 6.26 6.257.212-.212zm.828.168a.38.38 0 01-.373.118c-.14-.03-.298-.129-.455-.286l-.212.212c.178.178.385.32.603.367a.68.68 0 00.649-.199l-.212-.212zm-.04-.822c.228.226.277.585.04.822l.212.212c.385-.385.271-.937-.039-1.247l-.212.213zM9.329 8.57l6.327 6.325.212-.213L9.54 8.358l-.212.212zm.212 0l6.294-6.292-.212-.212-6.294 6.292.212.212zm6.294-6.292c.187-.187.295-.399.313-.612a.712.712 0 00-.212-.572l-.212.212c.094.094.136.21.125.335-.01.127-.077.277-.226.425l.212.212zm.101-1.184c-.306-.307-.852-.357-1.247.038l.212.213c.276-.276.631-.23.823-.04l.212-.211zm-1.247.038L8.394 7.424l.212.212L14.9 1.345l-.212-.213zM2.1 1.345l6.294 6.291.212-.212-6.294-6.292-.212.213zm-.823-.04c.192-.19.547-.236.823.04l.212-.213c-.395-.395-.94-.345-1.247-.038l.212.212zm.1.761c-.148-.148-.215-.298-.225-.425a.412.412 0 01.125-.335l-.212-.212a.712.712 0 00-.212.572c.018.213.126.425.313.612l.212-.212zm6.295 6.292L1.378 2.066l-.212.212L7.46 8.57l.212-.212zm-.212 0l-6.327 6.324.212.213L7.672 8.57l-.212-.212zm-6.327 6.324c-.31.31-.424.862-.039 1.247l.212-.212c-.237-.237-.187-.596.04-.822l-.213-.213zm-.039 1.247a.68.68 0 00.65.2c.217-.048.424-.19.602-.368l-.212-.212c-.157.157-.315.256-.455.286a.38.38 0 01-.373-.118l-.212.212zm1.252-.168l6.26-6.257-.212-.212-6.26 6.257.212.212z" />
	</symbol>

</svg>