<svg width="17" height="17" viewBox="0 0 17 17" fill="none" xmlns="http://www.w3.org/2000/svg">
<path fill-rule="evenodd" clip-rule="evenodd" d="M8.5 9.39769L14.7598 15.6551C15.0953 15.9905 15.4882 16.1343 15.7996 15.8231C16.111 15.5119 16.0294 15.0568 15.7609 14.7885L9.43408 8.46396L15.7282 2.17221C16.0637 1.83682 16.0782 1.44883 15.8291 1.19984C15.58 0.950843 15.1296 0.903086 14.7941 1.23848L8.5 7.53023L2.20591 1.23848C1.87039 0.903086 1.41999 0.950843 1.17091 1.19984C0.921819 1.44883 0.936316 1.83682 1.27184 2.17221L7.56592 8.46396L1.23906 14.7885C0.970642 15.0568 0.889042 15.5119 1.2004 15.8231C1.51176 16.1343 1.90472 15.9905 2.24024 15.6551L8.5 9.39769Z" fill="white"/>
<path d="M14.7598 15.6551L14.8658 15.549L14.7598 15.6551ZM8.5 9.39769L8.60605 9.29161L8.5 9.1856L8.39395 9.29161L8.5 9.39769ZM15.7609 14.7885L15.6549 14.8946L15.7609 14.7885ZM9.43408 8.46396L9.32803 8.35788L9.22191 8.46396L9.32803 8.57005L9.43408 8.46396ZM15.7282 2.17221L15.6221 2.06613L15.7282 2.17221ZM15.8291 1.19984L15.723 1.30592L15.723 1.30592L15.8291 1.19984ZM14.7941 1.23848L14.688 1.1324V1.1324L14.7941 1.23848ZM8.5 7.53023L8.39395 7.63632L8.5 7.74232L8.60605 7.63632L8.5 7.53023ZM2.20591 1.23848L2.31196 1.1324L2.20591 1.23848ZM1.17091 1.19984L1.06486 1.09375V1.09375L1.17091 1.19984ZM1.27184 2.17221L1.37788 2.06613L1.27184 2.17221ZM7.56592 8.46396L7.67197 8.57005L7.77809 8.46396L7.67197 8.35788L7.56592 8.46396ZM1.23906 14.7885L1.3451 14.8946H1.3451L1.23906 14.7885ZM2.24024 15.6551L2.13419 15.549H2.13419L2.24024 15.6551ZM14.8658 15.549L8.60605 9.29161L8.39395 9.50378L14.6537 15.7612L14.8658 15.549ZM15.6936 15.717C15.5742 15.8363 15.4502 15.8632 15.3206 15.835C15.1807 15.8046 15.0231 15.7063 14.8658 15.549L14.6537 15.7612C14.8319 15.9394 15.0386 16.0807 15.2568 16.1282C15.4854 16.1779 15.7136 16.1212 15.9056 15.9292L15.6936 15.717ZM15.6549 14.8946C15.8815 15.121 15.9309 15.4798 15.6936 15.717L15.9056 15.9292C16.2911 15.5439 16.1773 14.9925 15.867 14.6824L15.6549 14.8946ZM9.32803 8.57005L15.6549 14.8946L15.867 14.6824L9.54012 8.35788L9.32803 8.57005ZM9.54012 8.57005L15.8342 2.2783L15.6221 2.06613L9.32803 8.35788L9.54012 8.57005ZM15.8342 2.2783C16.0212 2.09143 16.1293 1.8791 16.1473 1.66631C16.1656 1.45117 16.0902 1.24876 15.9351 1.09375L15.723 1.30592C15.8171 1.39991 15.859 1.51599 15.8484 1.64094C15.8376 1.76824 15.7707 1.9176 15.6221 2.06613L15.8342 2.2783ZM15.9351 1.09375C15.6287 0.787435 15.0834 0.737225 14.688 1.1324L14.9001 1.34457C15.1759 1.06895 15.5313 1.11425 15.723 1.30592L15.9351 1.09375ZM14.688 1.1324L8.39395 7.42414L8.60605 7.63632L14.9001 1.34457L14.688 1.1324ZM2.09987 1.34457L8.39395 7.63632L8.60605 7.42414L2.31196 1.1324L2.09987 1.34457ZM1.27695 1.30592C1.4687 1.11425 1.82415 1.06895 2.09987 1.34457L2.31196 1.1324C1.91664 0.737225 1.37129 0.787435 1.06486 1.09375L1.27695 1.30592ZM1.37788 2.06613C1.2293 1.9176 1.16241 1.76824 1.15161 1.64094C1.141 1.51599 1.18293 1.39991 1.27695 1.30592L1.06486 1.09375C0.909794 1.24876 0.834426 1.45117 0.852681 1.66631C0.870736 1.8791 0.978848 2.09143 1.16579 2.2783L1.37788 2.06613ZM7.67197 8.35788L1.37788 2.06613L1.16579 2.2783L7.45988 8.57005L7.67197 8.35788ZM7.45988 8.35788L1.13301 14.6824L1.3451 14.8946L7.67197 8.57005L7.45988 8.35788ZM1.13301 14.6824C0.822738 14.9925 0.70894 15.5439 1.09436 15.9292L1.30645 15.717C1.06914 15.4798 1.11855 15.121 1.3451 14.8946L1.13301 14.6824ZM1.09436 15.9292C1.2864 16.1212 1.51455 16.1779 1.74316 16.1282C1.96142 16.0807 2.16807 15.9394 2.34629 15.7612L2.13419 15.549C1.97689 15.7063 1.8193 15.8046 1.67937 15.835C1.54977 15.8632 1.42576 15.8363 1.30645 15.717L1.09436 15.9292ZM2.34629 15.7612L8.60605 9.50378L8.39395 9.29161L2.13419 15.549L2.34629 15.7612Z" fill="white"/>
</svg>
