<svg width="18" height="22" viewBox="0 0 18 22" fill="none" xmlns="http://www.w3.org/2000/svg">
<path d="M4.2002 4.28571L9.0002 4.28571" stroke="#3166B4" stroke-width="1.5" stroke-linecap="round" stroke-linejoin="round"/>
<path d="M4.2002 8.28345L9.0002 8.28345" stroke="#3166B4" stroke-width="1.5" stroke-linecap="round" stroke-linejoin="round"/>
<path d="M4.2002 12.2822L13.8002 12.2822" stroke="#3166B4" stroke-width="1.5" stroke-linecap="round" stroke-linejoin="round"/>
<path d="M4.2002 16.2809L13.8002 16.2809" stroke="#3166B4" stroke-width="1.5" stroke-linecap="round" stroke-linejoin="round"/>
<path d="M1 1.08575L1 0.335754H0.25L0.25 1.08575L1 1.08575ZM11.4 8.68336H10.65L10.65 9.43336H11.4L11.4 8.68336ZM17 21.0794V21.8294H17.75L17.75 21.0794H17ZM1 21.0794H0.25L0.25 21.8294H1L1 21.0794ZM11.4 1.08575L12.0037 0.640764L11.7789 0.335754H11.4L11.4 1.08575ZM17 8.68336H17.75L17.75 8.43682L17.6037 8.23837L17 8.68336ZM17 20.3294H1L1 21.8294H17V20.3294ZM1.75 21.0794L1.75 1.08575L0.25 1.08575L0.25 21.0794H1.75ZM1 1.83575H11.4L11.4 0.335754H1L1 1.83575ZM10.65 1.08575L10.65 8.68336H12.15L12.15 1.08575H10.65ZM11.4 9.43336H17L17 7.93336H11.4L11.4 9.43336ZM16.25 8.68336L16.25 21.0794H17.75L17.75 8.68336H16.25ZM10.7963 1.53074L16.3963 9.12835L17.6037 8.23837L12.0037 0.640764L10.7963 1.53074Z" fill="#3166B4"/>
</svg>
