<svg width="22" height="22" viewBox="0 0 22 22" fill="none" xmlns="http://www.w3.org/2000/svg">
<path d="M19.8853 15.5114C19.0596 14.6591 16.7125 13.0625 15.1742 13.0625C14.8179 13.0625 14.5069 13.142 14.2524 13.3068C13.5002 13.7898 12.9007 14.1648 12.6123 14.1648C12.4539 14.1648 12.2843 14.0227 11.911 13.6989L11.8488 13.642C10.8138 12.7386 10.5933 12.5057 10.1917 12.0852L10.0899 11.9773C10.0164 11.9034 9.95418 11.8352 9.89197 11.7727C9.54133 11.4091 9.28683 11.1477 8.3876 10.125L8.34801 10.0795C7.91819 9.59091 7.63542 9.27273 7.61845 9.03977C7.60149 8.8125 7.79943 8.44318 8.30277 7.75568C8.91357 6.92614 8.93619 5.90341 8.37629 4.71591C7.92951 3.77841 7.19994 2.88068 6.55522 2.09091L6.49866 2.02273C5.94442 1.34091 5.29969 1 4.58144 1C3.78401 1 3.12232 1.43182 2.77168 1.65909C2.7434 1.67614 2.71512 1.69886 2.68684 1.71591C1.90073 2.21591 1.32952 2.90341 1.11461 3.60227C0.792248 4.65341 0.577338 6.01705 2.12129 8.85227C3.45599 11.3068 4.66627 12.9545 6.58915 14.9375C8.39891 16.8011 9.202 17.4034 11.0004 18.7102C13.0025 20.1648 14.9254 21 16.2714 21C17.5213 21 18.5053 21 19.9079 19.3011C21.3783 17.517 20.7675 16.4261 19.8853 15.5114ZM19.2349 18.6875C18.1038 20.0625 17.4534 20.0625 16.277 20.0625C15.129 20.0625 13.3475 19.267 11.5151 17.9432C9.76189 16.6705 8.98143 16.0852 7.22257 14.2727C5.3619 12.358 4.19121 10.7614 2.90175 8.39205C1.53878 5.88636 1.69147 4.78977 1.96859 3.88636C2.11564 3.40341 2.55677 2.88636 3.15625 2.51136C3.18453 2.49432 3.21281 2.47159 3.24674 2.45455C3.54648 2.26136 4.04417 1.9375 4.5871 1.9375C5.03954 1.9375 5.44108 2.16477 5.82565 2.63636L5.88221 2.70455C7.32437 4.47727 8.44981 6.04545 7.60149 7.20455C7.002 8.01705 6.68529 8.56818 6.73619 9.13636C6.78144 9.6875 7.14904 10.1023 7.70329 10.7273L7.74287 10.7727C8.65341 11.8068 8.91357 12.0795 9.27552 12.4489C9.33773 12.5114 9.39994 12.5795 9.47346 12.6534L9.57526 12.7614C9.99377 13.1989 10.2256 13.4375 11.2889 14.375L11.3511 14.4318C11.8035 14.8295 12.1372 15.1193 12.6236 15.1193C13.1269 15.1193 13.6812 14.8011 14.7331 14.125C14.8405 14.0568 14.9932 14.017 15.1855 14.017C16.4128 14.017 18.5279 15.4261 19.2688 16.1932C19.9475 16.8864 20.2868 17.4091 19.2349 18.6875Z" fill="white" stroke="white" stroke-width="0.5"/>
</svg>
